<?xml version="1.0" encoding="iso-8859-1"?>
<!-- Uploaded to: SVG Repo, www.svgrepo.com, Generator: SVG Repo Mixer Tools -->
<svg fill="#000000" height="800px" width="800px" version="1.1" id="Layer_1" xmlns="http://www.w3.org/2000/svg" xmlns:xlink="http://www.w3.org/1999/xlink" 
	 viewBox="0 0 503.696 503.696" xml:space="preserve">
<g>
	<g>
		<path d="M503.655,35.399l-0.05-14.37c0-3.534-2.207-6.69-5.531-7.898c-3.307-1.192-7.042-0.193-9.308,2.518
			c-19.297,23.157-36.604,41.917-64.747,54.222c-18.163-9.955-39.416-15.268-62.842-15.268c-50.889,0-88.341,19.313-109.375,56.119
			c-21.034-36.805-58.486-56.119-109.367-56.119c-23.418,0-44.645,5.305-62.8,15.242C51.508,57.541,34.209,38.79,14.938,15.649
			c-2.275-2.711-5.993-3.71-9.317-2.518C2.306,14.34,0.09,17.496,0.09,21.029L0.04,35.407
			c-0.201,44.502-0.352,86.595,18.709,123.963c-8.184,48.027,7.923,100.763,45.081,141.824
			c30.485,33.683,180.526,185.873,182.003,187.367c1.578,1.603,3.727,2.501,5.968,2.501c2.249,0,4.398-0.898,5.968-2.501
			c1.486-1.494,151.527-153.684,182.012-187.367c37.124-41.027,53.223-93.704,45.098-141.69
			C504.007,122.103,503.865,79.96,503.655,35.399z M28.695,126.174c-1.016,2.291-1.863,4.633-2.745,6.958
			c-8.746-26.901-9.258-56.614-9.157-89.676C30.097,57.994,44.416,70.819,63.31,80.748C48.739,92.39,36.929,107.641,28.695,126.174z
			 M477.408,132.502c-0.823-2.115-1.57-4.247-2.501-6.329c-8.217-18.516-20.01-33.758-34.573-45.4
			c18.919-9.929,33.255-22.763,46.567-37.317c0.109,33.087-0.411,62.825-9.182,89.743
			C477.635,132.964,477.501,132.746,477.408,132.502z"/>
	</g>
</g>
</svg>